<svg class="diagram-root" style="background: #f5f6f6" xmlns="http://www.w3.org/2000/svg" xmlns:xlink="http://www.w3.org/1999/xlink"><style>.diagram-root { font-family: "Helvetica Neue", sans-serif; font-size: 12px; } .t { overflow: visible; } .t-bg { y: 40; fill: #fff;   } .th { fill: #005aa0;   } .tht { fill: #fff; font-size: 14px;  } .tf { fill: #323c46; overflow: visible; } .tf.pk { fill: #005aa0; font-weight: bold; } .tf.fk { font-weight: bold; } .ty { fill: #adb1b5; font-weight: normal; text-anchor: end; } .r { fill: transparent; stroke: #c3c3c3; stroke-width: 1; } .l { stroke: 1; } .i { fill: #c2c7ce; stroke: #c2c7ce; } .i.ix { fill: #afb3b6; stroke: #000; } .fa { fill: transparent; overflow: visible; } .fa .bg.hover { fill: #f7f7f7; } .c { cy: 12; r: 4; stroke: #d2d2dc; fill: #d2d2dc; } .hr { fill: transparent; stroke: #323c46; stroke-opacity: 0.035; stroke-width: 13; } .dc { stroke: #fa5a3c; fill: #fa5a3c; } .x { stroke: white; stroke-width: 1; } .hl .th { fill: #1b9bff; } .hl .tht {  } .fhl .bg { fill: #e7f4ff; } .fhls .bg {  } .r.hl { stroke: #1b9bff; } .dim { opacity: 0.25; }</style><g class="drawing-wrapper" transform="translate(-38, -14) scale(1,1)"><g class="rs"><path d="M 216.07 176 m -1, 0 a 1,1 0 1,0 2,0 a 1,1 0 1,0 -2,0 M 216.07 176 m -0.5, 0 a 0.5,0.5 0 1,0 1,0 a 0.5,0.5 0 1,0 -1,0  M216.07 176 L216.07 176 228.07 176 M 216.07 182 m -1, 0 a 1,1 0 1,0 2,0 a 1,1 0 1,0 -2,0 M 216.07 182 m -0.5, 0 a 0.5,0.5 0 1,0 1,0 a 0.5,0.5 0 1,0 -1,0  M216.07 182 L216.07 182 223.07 176 216.07 170 M 216.07 170 m -1, 0 a 1,1 0 1,0 2,0 a 1,1 0 1,0 -2,0 M 216.07 170 m -0.5, 0 a 0.5,0.5 0 1,0 1,0 a 0.5,0.5 0 1,0 -1,0  M228.07 176 C 256.3103207166242 176, 255.59632071662418 255, 229.26 255 M 217.26 255 m -1, 0 a 1,1 0 1,0 2,0 a 1,1 0 1,0 -2,0 M 217.26 255 m -0.5, 0 a 0.5,0.5 0 1,0 1,0 a 0.5,0.5 0 1,0 -1,0  M217.26 255 L217.26 255 229.26 255 M223.26 261 L223.26 261 223.26 249" id="h3001648005" class="r"></path><path d="M 427.93 210 m -1, 0 a 1,1 0 1,0 2,0 a 1,1 0 1,0 -2,0 M 427.93 210 m -0.5, 0 a 0.5,0.5 0 1,0 1,0 a 0.5,0.5 0 1,0 -1,0  M427.93 210 L427.93 210 439.93 210 M 427.93 216 m -1, 0 a 1,1 0 1,0 2,0 a 1,1 0 1,0 -2,0 M 427.93 216 m -0.5, 0 a 0.5,0.5 0 1,0 1,0 a 0.5,0.5 0 1,0 -1,0  M427.93 216 L427.93 216 434.93 210 427.93 204 M 427.93 204 m -1, 0 a 1,1 0 1,0 2,0 a 1,1 0 1,0 -2,0 M 427.93 204 m -0.5, 0 a 0.5,0.5 0 1,0 1,0 a 0.5,0.5 0 1,0 -1,0  M439.93 210 Q 457.2 210, 474.47 181.5 T 509 153 M 521 153 m -1, 0 a 1,1 0 1,0 2,0 a 1,1 0 1,0 -2,0 M 521 153 m -0.5, 0 a 0.5,0.5 0 1,0 1,0 a 0.5,0.5 0 1,0 -1,0  M521 153 L521 153 509 153 M515 159 L515 159 515 147" id="h1429380744" class="r"></path><path d="M 318 235 m -1, 0 a 1,1 0 1,0 2,0 a 1,1 0 1,0 -2,0 M 318 235 m -0.5, 0 a 0.5,0.5 0 1,0 1,0 a 0.5,0.5 0 1,0 -1,0  M318 235 L318 235 306 235 M 318 241 m -1, 0 a 1,1 0 1,0 2,0 a 1,1 0 1,0 -2,0 M 318 241 m -0.5, 0 a 0.5,0.5 0 1,0 1,0 a 0.5,0.5 0 1,0 -1,0  M318 241 L318 241 311 235 318 229 M 318 229 m -1, 0 a 1,1 0 1,0 2,0 a 1,1 0 1,0 -2,0 M 318 229 m -0.5, 0 a 0.5,0.5 0 1,0 1,0 a 0.5,0.5 0 1,0 -1,0  M306 235 Q 286.52 235, 267.03 168 T 228.07 101 M 216.07 101 m -1, 0 a 1,1 0 1,0 2,0 a 1,1 0 1,0 -2,0 M 216.07 101 m -0.5, 0 a 0.5,0.5 0 1,0 1,0 a 0.5,0.5 0 1,0 -1,0  M216.07 101 L216.07 101 228.07 101 M222.07 107 L222.07 107 222.07 95" id="h1048290794" class="r"></path><path d="M 318 260 m -1, 0 a 1,1 0 1,0 2,0 a 1,1 0 1,0 -2,0 M 318 260 m -0.5, 0 a 0.5,0.5 0 1,0 1,0 a 0.5,0.5 0 1,0 -1,0  M318 260 L318 260 306 260 M 318 266 m -1, 0 a 1,1 0 1,0 2,0 a 1,1 0 1,0 -2,0 M 318 266 m -0.5, 0 a 0.5,0.5 0 1,0 1,0 a 0.5,0.5 0 1,0 -1,0  M318 266 L318 266 311 260 318 254 M 318 254 m -1, 0 a 1,1 0 1,0 2,0 a 1,1 0 1,0 -2,0 M 318 254 m -0.5, 0 a 0.5,0.5 0 1,0 1,0 a 0.5,0.5 0 1,0 -1,0  M306 260 Q 286.82 260, 267.63 257.5 T 229.26 255 M 217.26 255 m -1, 0 a 1,1 0 1,0 2,0 a 1,1 0 1,0 -2,0 M 217.26 255 m -0.5, 0 a 0.5,0.5 0 1,0 1,0 a 0.5,0.5 0 1,0 -1,0  M217.26 255 L217.26 255 229.26 255 M223.26 261 L223.26 261 223.26 249" id="h1387704339" class="r"></path><path d="M 521 228 m -1, 0 a 1,1 0 1,0 2,0 a 1,1 0 1,0 -2,0 M 521 228 m -0.5, 0 a 0.5,0.5 0 1,0 1,0 a 0.5,0.5 0 1,0 -1,0  M521 228 L521 228 509 228 M 521 234 m -1, 0 a 1,1 0 1,0 2,0 a 1,1 0 1,0 -2,0 M 521 234 m -0.5, 0 a 0.5,0.5 0 1,0 1,0 a 0.5,0.5 0 1,0 -1,0  M521 234 L521 234 514 228 521 222 M 521 222 m -1, 0 a 1,1 0 1,0 2,0 a 1,1 0 1,0 -2,0 M 521 222 m -0.5, 0 a 0.5,0.5 0 1,0 1,0 a 0.5,0.5 0 1,0 -1,0  M509 228 C 484 228, 484 153, 509 153 M 521 153 m -1, 0 a 1,1 0 1,0 2,0 a 1,1 0 1,0 -2,0 M 521 153 m -0.5, 0 a 0.5,0.5 0 1,0 1,0 a 0.5,0.5 0 1,0 -1,0  M521 153 L521 153 509 153 M515 159 L515 159 515 147" id="h2463702106" class="r"></path></g><g class="hrs"></g><g class="ts"><svg width="156.07" height="150" x="60" y="44" id="h2948373614" class="t"><rect height="40" width="156.07" class="th"></rect><text x="13" y="25" class="tht">users</text><rect height="110" width="156.07" class="t-bg" y="40"></rect><text x="13" y="61" class="tf pk">id<tspan x="143.07" class="ty">int</tspan></text><path d="M7,14A2,2 0 0,1 5,12A2,2 0 0,1 7,10A2,2 0 0,1 9,12A2,2 0 0,1 7,14M12.65,10C11.83,7.67 9.61,6 7, 6A6, 6 0 0, 0 1, 12A6, 6 0 0, 0 7, 18C9.61, 18 11.83, 16.33 12.65, 14H17V18H21V14H23V10H12.65Z" class="i pk" transform="translate(108.25941955023231, 48) scale(0.65)"></path><text x="13" y="86" class="tf">username<tspan x="143.07" class="ty">int</tspan></text><text x="13" y="111" class="tf">password_hash<tspan x="143.07" class="ty">int</tspan></text><text x="13" y="136" class="tf fk">preferred_region<tspan x="143.07" class="ty">int</tspan></text></svg><svg width="109.93" height="225" x="318" y="53" id="h2471855060" class="t"><rect height="40" width="109.93" class="th"></rect><text x="13" y="25" class="tht">posts</text><rect height="185" width="109.93" class="t-bg" y="40"></rect><text x="13" y="61" class="tf pk">id<tspan x="96.93" class="ty">int</tspan></text><path d="M7,14A2,2 0 0,1 5,12A2,2 0 0,1 7,10A2,2 0 0,1 9,12A2,2 0 0,1 7,14M12.65,10C11.83,7.67 9.61,6 7, 6A6, 6 0 0, 0 1, 12A6, 6 0 0, 0 7, 18C9.61, 18 11.83, 16.33 12.65, 14H17V18H21V14H23V10H12.65Z" class="i pk" transform="translate(62.11941955023234, 48) scale(0.65)"></path><text x="13" y="86" class="tf">title<tspan x="96.93" class="ty">int</tspan></text><text x="13" y="111" class="tf">text<tspan x="96.93" class="ty">int</tspan></text><text x="13" y="136" class="tf">location<tspan x="96.93" class="ty">int</tspan></text><text x="13" y="161" class="tf fk">category<tspan x="96.93" class="ty">int</tspan></text><text x="13" y="186" class="tf fk">user<tspan x="96.93" class="ty">int</tspan></text><text x="13" y="211" class="tf fk">region<tspan x="96.93" class="ty">int</tspan></text></svg><svg width="152.48" height="150" x="521" y="96" id="h2129794260" class="t"><rect height="40" width="152.48" class="th"></rect><text x="13" y="25" class="tht">categories</text><rect height="110" width="152.48" class="t-bg" y="40"></rect><text x="13" y="61" class="tf pk">id<tspan x="139.48" class="ty">int</tspan></text><path d="M7,14A2,2 0 0,1 5,12A2,2 0 0,1 7,10A2,2 0 0,1 9,12A2,2 0 0,1 7,14M12.65,10C11.83,7.67 9.61,6 7, 6A6, 6 0 0, 0 1, 12A6, 6 0 0, 0 7, 18C9.61, 18 11.83, 16.33 12.65, 14H17V18H21V14H23V10H12.65Z" class="i pk" transform="translate(104.66941955023232, 48) scale(0.65)"></path><text x="13" y="86" class="tf">name<tspan x="139.48" class="ty">int</tspan></text><text x="13" y="111" class="tf">description<tspan x="139.48" class="ty">int</tspan></text><text x="13" y="136" class="tf fk">parent_category<tspan x="139.48" class="ty">int</tspan></text></svg><svg width="124.26" height="125" x="93" y="198" id="h850082920" class="t"><rect height="40" width="124.26" class="th"></rect><text x="13" y="25" class="tht">regions</text><rect height="85" width="124.26" class="t-bg" y="40"></rect><text x="13" y="61" class="tf pk">id<tspan x="111.26" class="ty">int</tspan></text><path d="M7,14A2,2 0 0,1 5,12A2,2 0 0,1 7,10A2,2 0 0,1 9,12A2,2 0 0,1 7,14M12.65,10C11.83,7.67 9.61,6 7, 6A6, 6 0 0, 0 1, 12A6, 6 0 0, 0 7, 18C9.61, 18 11.83, 16.33 12.65, 14H17V18H21V14H23V10H12.65Z" class="i pk" transform="translate(76.44941955023234, 48) scale(0.65)"></path><text x="13" y="86" class="tf">name<tspan x="111.26" class="ty">int</tspan></text><text x="13" y="111" class="tf">subdomain<tspan x="111.26" class="ty">int</tspan></text></svg></g></g><text class="qdbd-link" x="10" y="20">www.quickdatabasediagrams.com</text></svg>