<svg class="diagram-root" style="background: #f5f6f6" xmlns="http://www.w3.org/2000/svg" xmlns:xlink="http://www.w3.org/1999/xlink"><style>.diagram-root { font-family: "Helvetica Neue", sans-serif; font-size: 12px; } .t { overflow: visible; } .t-bg { y: 40; fill: #fff;   } .th { fill: #005aa0;   } .tht { fill: #fff; font-size: 14px;  } .tf { fill: #323c46; overflow: visible; } .tf.pk { fill: #005aa0; font-weight: bold; } .tf.fk { font-weight: bold; } .ty { fill: #adb1b5; font-weight: normal; text-anchor: end; } .r { fill: transparent; stroke: #c3c3c3; stroke-width: 1; } .l { stroke: 1; } .i { fill: #c2c7ce; stroke: #c2c7ce; } .i.ix { fill: #afb3b6; stroke: #000; } .fa { fill: transparent; overflow: visible; } .fa .bg.hover { fill: #f7f7f7; } .c { cy: 12; r: 4; stroke: #d2d2dc; fill: #d2d2dc; } .hr { fill: transparent; stroke: #323c46; stroke-opacity: 0.035; stroke-width: 13; } .dc { stroke: #fa5a3c; fill: #fa5a3c; } .x { stroke: white; stroke-width: 1; } .hl .th { fill: #1b9bff; } .hl .tht {  } .fhl .bg { fill: #e7f4ff; } .fhls .bg {  } .r.hl { stroke: #1b9bff; } .dim { opacity: 0.25; }</style><g class="drawing-wrapper" transform="translate(78, 133) scale(1,1)"><g class="rs"><path d="M 179 259 m -1, 0 a 1,1 0 1,0 2,0 a 1,1 0 1,0 -2,0 M 179 259 m -0.5, 0 a 0.5,0.5 0 1,0 1,0 a 0.5,0.5 0 1,0 -1,0  M179 259 L179 259 167 259 M 179 265 m -1, 0 a 1,1 0 1,0 2,0 a 1,1 0 1,0 -2,0 M 179 265 m -0.5, 0 a 0.5,0.5 0 1,0 1,0 a 0.5,0.5 0 1,0 -1,0  M179 265 L179 265 172 259 179 253 M 179 253 m -1, 0 a 1,1 0 1,0 2,0 a 1,1 0 1,0 -2,0 M 179 253 m -0.5, 0 a 0.5,0.5 0 1,0 1,0 a 0.5,0.5 0 1,0 -1,0  M167 259 Q 151.6 259, 136.19 269 T 105.38 279 M 93.38 279 m -1, 0 a 1,1 0 1,0 2,0 a 1,1 0 1,0 -2,0 M 93.38 279 m -0.5, 0 a 0.5,0.5 0 1,0 1,0 a 0.5,0.5 0 1,0 -1,0  M93.38 279 L93.38 279 105.38 279 M99.38 285 L99.38 285 99.38 273" id="h594496223" class="r"></path><path d="M 331.87 284 m -1, 0 a 1,1 0 1,0 2,0 a 1,1 0 1,0 -2,0 M 331.87 284 m -0.5, 0 a 0.5,0.5 0 1,0 1,0 a 0.5,0.5 0 1,0 -1,0  M331.87 284 L331.87 284 343.87 284 M 331.87 290 m -1, 0 a 1,1 0 1,0 2,0 a 1,1 0 1,0 -2,0 M 331.87 290 m -0.5, 0 a 0.5,0.5 0 1,0 1,0 a 0.5,0.5 0 1,0 -1,0  M331.87 290 L331.87 290 338.87 284 331.87 278 M 331.87 278 m -1, 0 a 1,1 0 1,0 2,0 a 1,1 0 1,0 -2,0 M 331.87 278 m -0.5, 0 a 0.5,0.5 0 1,0 1,0 a 0.5,0.5 0 1,0 -1,0  M343.87 284 Q 361.66 284, 379.44 289 T 415 294 M 427 294 m -1, 0 a 1,1 0 1,0 2,0 a 1,1 0 1,0 -2,0 M 427 294 m -0.5, 0 a 0.5,0.5 0 1,0 1,0 a 0.5,0.5 0 1,0 -1,0  M427 294 L427 294 415 294 M421 300 L421 300 421 288" id="h688540576" class="r"></path><path d="M 91.26 135 m -1, 0 a 1,1 0 1,0 2,0 a 1,1 0 1,0 -2,0 M 91.26 135 m -0.5, 0 a 0.5,0.5 0 1,0 1,0 a 0.5,0.5 0 1,0 -1,0  M91.26 135 L91.26 135 103.26 135 M 91.26 141 m -1, 0 a 1,1 0 1,0 2,0 a 1,1 0 1,0 -2,0 M 91.26 141 m -0.5, 0 a 0.5,0.5 0 1,0 1,0 a 0.5,0.5 0 1,0 -1,0  M91.26 141 L91.26 141 98.26 135 91.26 129 M 91.26 129 m -1, 0 a 1,1 0 1,0 2,0 a 1,1 0 1,0 -2,0 M 91.26 129 m -0.5, 0 a 0.5,0.5 0 1,0 1,0 a 0.5,0.5 0 1,0 -1,0  M103.26 135 C 154.65720157001508 135, 153.38520157001506 279, 105.38 279 M 93.38 279 m -1, 0 a 1,1 0 1,0 2,0 a 1,1 0 1,0 -2,0 M 93.38 279 m -0.5, 0 a 0.5,0.5 0 1,0 1,0 a 0.5,0.5 0 1,0 -1,0  M93.38 279 L93.38 279 105.38 279 M99.38 285 L99.38 285 99.38 273" id="h1485810070" class="r"></path><path d="M 91.26 185 m -1, 0 a 1,1 0 1,0 2,0 a 1,1 0 1,0 -2,0 M 91.26 185 m -0.5, 0 a 0.5,0.5 0 1,0 1,0 a 0.5,0.5 0 1,0 -1,0  M91.26 185 L91.26 185 103.26 185 M 91.26 191 m -1, 0 a 1,1 0 1,0 2,0 a 1,1 0 1,0 -2,0 M 91.26 191 m -0.5, 0 a 0.5,0.5 0 1,0 1,0 a 0.5,0.5 0 1,0 -1,0  M91.26 191 L91.26 191 98.26 185 91.26 179 M 91.26 179 m -1, 0 a 1,1 0 1,0 2,0 a 1,1 0 1,0 -2,0 M 91.26 179 m -0.5, 0 a 0.5,0.5 0 1,0 1,0 a 0.5,0.5 0 1,0 -1,0  M103.26 185 Q 119.2 185, 135.13 209.5 T 167 234 M 179 234 m -1, 0 a 1,1 0 1,0 2,0 a 1,1 0 1,0 -2,0 M 179 234 m -0.5, 0 a 0.5,0.5 0 1,0 1,0 a 0.5,0.5 0 1,0 -1,0  M179 234 L179 234 167 234 M173 240 L173 240 173 228" id="h2355801298" class="r"></path><path d="M 205 91 m -1, 0 a 1,1 0 1,0 2,0 a 1,1 0 1,0 -2,0 M 205 91 m -0.5, 0 a 0.5,0.5 0 1,0 1,0 a 0.5,0.5 0 1,0 -1,0  M205 91 L205 91 193 91 M 205 97 m -1, 0 a 1,1 0 1,0 2,0 a 1,1 0 1,0 -2,0 M 205 97 m -0.5, 0 a 0.5,0.5 0 1,0 1,0 a 0.5,0.5 0 1,0 -1,0  M205 97 L205 97 198 91 205 85 M 205 85 m -1, 0 a 1,1 0 1,0 2,0 a 1,1 0 1,0 -2,0 M 205 85 m -0.5, 0 a 0.5,0.5 0 1,0 1,0 a 0.5,0.5 0 1,0 -1,0  M193 91 Q 170.57 91, 148.13 100.5 T 103.26 110 M 91.26 110 m -1, 0 a 1,1 0 1,0 2,0 a 1,1 0 1,0 -2,0 M 91.26 110 m -0.5, 0 a 0.5,0.5 0 1,0 1,0 a 0.5,0.5 0 1,0 -1,0  M91.26 110 L91.26 110 103.26 110 M97.26 116 L97.26 116 97.26 104" id="h1121866459" class="r"></path><path d="M 323.49 116 m -1, 0 a 1,1 0 1,0 2,0 a 1,1 0 1,0 -2,0 M 323.49 116 m -0.5, 0 a 0.5,0.5 0 1,0 1,0 a 0.5,0.5 0 1,0 -1,0  M323.49 116 L323.49 116 335.49 116 M 323.49 122 m -1, 0 a 1,1 0 1,0 2,0 a 1,1 0 1,0 -2,0 M 323.49 122 m -0.5, 0 a 0.5,0.5 0 1,0 1,0 a 0.5,0.5 0 1,0 -1,0  M323.49 122 L323.49 122 330.49 116 323.49 110 M 323.49 110 m -1, 0 a 1,1 0 1,0 2,0 a 1,1 0 1,0 -2,0 M 323.49 110 m -0.5, 0 a 0.5,0.5 0 1,0 1,0 a 0.5,0.5 0 1,0 -1,0  M335.49 116 C 388.3303955932457 116, 383.3023955932457 234, 343.87 234 M 331.87 234 m -1, 0 a 1,1 0 1,0 2,0 a 1,1 0 1,0 -2,0 M 331.87 234 m -0.5, 0 a 0.5,0.5 0 1,0 1,0 a 0.5,0.5 0 1,0 -1,0  M331.87 234 L331.87 234 343.87 234 M337.87 240 L337.87 240 337.87 228" id="h3242405360" class="r"></path><path d="M 323.49 141 m -1, 0 a 1,1 0 1,0 2,0 a 1,1 0 1,0 -2,0 M 323.49 141 m -0.5, 0 a 0.5,0.5 0 1,0 1,0 a 0.5,0.5 0 1,0 -1,0  M323.49 141 L323.49 141 335.49 141 M 323.49 147 m -1, 0 a 1,1 0 1,0 2,0 a 1,1 0 1,0 -2,0 M 323.49 147 m -0.5, 0 a 0.5,0.5 0 1,0 1,0 a 0.5,0.5 0 1,0 -1,0  M323.49 147 L323.49 147 330.49 141 323.49 135 M 323.49 135 m -1, 0 a 1,1 0 1,0 2,0 a 1,1 0 1,0 -2,0 M 323.49 135 m -0.5, 0 a 0.5,0.5 0 1,0 1,0 a 0.5,0.5 0 1,0 -1,0  M335.49 141 Q 355.37 141, 375.25 217.5 T 415 294 M 427 294 m -1, 0 a 1,1 0 1,0 2,0 a 1,1 0 1,0 -2,0 M 427 294 m -0.5, 0 a 0.5,0.5 0 1,0 1,0 a 0.5,0.5 0 1,0 -1,0  M427 294 L427 294 415 294 M421 300 L421 300 421 288" id="h2672217357" class="r"></path><path d="M 417 4 m -1, 0 a 1,1 0 1,0 2,0 a 1,1 0 1,0 -2,0 M 417 4 m -0.5, 0 a 0.5,0.5 0 1,0 1,0 a 0.5,0.5 0 1,0 -1,0  M417 4 L417 4 405 4 M 417 10 m -1, 0 a 1,1 0 1,0 2,0 a 1,1 0 1,0 -2,0 M 417 10 m -0.5, 0 a 0.5,0.5 0 1,0 1,0 a 0.5,0.5 0 1,0 -1,0  M417 10 L417 10 410 4 417 -2 M 417 -2 m -1, 0 a 1,1 0 1,0 2,0 a 1,1 0 1,0 -2,0 M 417 -2 m -0.5, 0 a 0.5,0.5 0 1,0 1,0 a 0.5,0.5 0 1,0 -1,0  M405 4 Q 387.63 4, 370.25 22.5 T 335.49 41 M 323.49 41 m -1, 0 a 1,1 0 1,0 2,0 a 1,1 0 1,0 -2,0 M 323.49 41 m -0.5, 0 a 0.5,0.5 0 1,0 1,0 a 0.5,0.5 0 1,0 -1,0  M323.49 41 L323.49 41 335.49 41 M329.49 47 L329.49 47 329.49 35" id="h2260256950" class="r"></path><path d="M 417 29 m -1, 0 a 1,1 0 1,0 2,0 a 1,1 0 1,0 -2,0 M 417 29 m -0.5, 0 a 0.5,0.5 0 1,0 1,0 a 0.5,0.5 0 1,0 -1,0  M417 29 L417 29 405 29 M 417 35 m -1, 0 a 1,1 0 1,0 2,0 a 1,1 0 1,0 -2,0 M 417 35 m -0.5, 0 a 0.5,0.5 0 1,0 1,0 a 0.5,0.5 0 1,0 -1,0  M417 35 L417 35 410 29 417 23 M 417 23 m -1, 0 a 1,1 0 1,0 2,0 a 1,1 0 1,0 -2,0 M 417 23 m -0.5, 0 a 0.5,0.5 0 1,0 1,0 a 0.5,0.5 0 1,0 -1,0  M405 29 C 376.9920646165333 29, 375.7920646165333 113, 407 113 M 419 113 m -1, 0 a 1,1 0 1,0 2,0 a 1,1 0 1,0 -2,0 M 419 113 m -0.5, 0 a 0.5,0.5 0 1,0 1,0 a 0.5,0.5 0 1,0 -1,0  M419 113 L419 113 407 113 M413 119 L413 119 413 107" id="h3675213605" class="r"></path></g><g class="hrs"></g><g class="ts"><svg width="112.13" height="150" x="427" y="237" id="h520043812" class="t"><rect height="40" width="112.13" class="th"></rect><text x="13" y="25" class="tht">clinics</text><rect height="110" width="112.13" class="t-bg" y="40"></rect><text x="13" y="61" class="tf fk">id<tspan x="99.13" class="ty">int</tspan></text><text x="13" y="86" class="tf">name<tspan x="99.13" class="ty">int</tspan></text><text x="13" y="111" class="tf">location<tspan x="99.13" class="ty">int</tspan></text><text x="13" y="136" class="tf">founding<tspan x="99.13" class="ty">int</tspan></text></svg><svg width="118.49" height="175" x="205" y="-16" id="h3337364329" class="t"><rect height="40" width="118.49" class="th"></rect><text x="13" y="25" class="tht">appointments</text><rect height="135" width="118.49" class="t-bg" y="40"></rect><text x="13" y="61" class="tf pk">id<tspan x="105.49" class="ty">int</tspan></text><path d="M7,14A2,2 0 0,1 5,12A2,2 0 0,1 7,10A2,2 0 0,1 9,12A2,2 0 0,1 7,14M12.65,10C11.83,7.67 9.61,6 7, 6A6, 6 0 0, 0 1, 12A6, 6 0 0, 0 7, 18C9.61, 18 11.83, 16.33 12.65, 14H17V18H21V14H23V10H12.65Z" class="i pk" transform="translate(70.67941955023232, 48) scale(0.65)"></path><text x="13" y="86" class="tf">when<tspan x="105.49" class="ty">int</tspan></text><text x="13" y="111" class="tf fk">patient<tspan x="105.49" class="ty">int</tspan></text><text x="13" y="136" class="tf fk">doctor<tspan x="105.49" class="ty">int</tspan></text><text x="13" y="161" class="tf fk">clinic<tspan x="105.49" class="ty">int</tspan></text></svg><svg width="133.91" height="150" x="417" y="-103" id="h647382338" class="t"><rect height="40" width="133.91" class="th"></rect><text x="13" y="25" class="tht">diagnoses</text><rect height="110" width="133.91" class="t-bg" y="40"></rect><text x="13" y="61" class="tf pk">id<tspan x="120.91" class="ty">int</tspan></text><path d="M7,14A2,2 0 0,1 5,12A2,2 0 0,1 7,10A2,2 0 0,1 9,12A2,2 0 0,1 7,14M12.65,10C11.83,7.67 9.61,6 7, 6A6, 6 0 0, 0 1, 12A6, 6 0 0, 0 7, 18C9.61, 18 11.83, 16.33 12.65, 14H17V18H21V14H23V10H12.65Z" class="i pk" transform="translate(86.09941955023233, 48) scale(0.65)"></path><text x="13" y="86" class="tf">notes<tspan x="120.91" class="ty">int</tspan></text><text x="13" y="111" class="tf fk">appointment<tspan x="120.91" class="ty">int</tspan></text><text x="13" y="136" class="tf fk">condition<tspan x="120.91" class="ty">int</tspan></text></svg><svg width="148.33" height="175" x="419" y="56" id="h578040488" class="t"><rect height="40" width="148.33" class="th"></rect><text x="13" y="25" class="tht">conditions</text><rect height="135" width="148.33" class="t-bg" y="40"></rect><text x="13" y="61" class="tf pk">id<tspan x="135.33" class="ty">int</tspan></text><path d="M7,14A2,2 0 0,1 5,12A2,2 0 0,1 7,10A2,2 0 0,1 9,12A2,2 0 0,1 7,14M12.65,10C11.83,7.67 9.61,6 7, 6A6, 6 0 0, 0 1, 12A6, 6 0 0, 0 7, 18C9.61, 18 11.83, 16.33 12.65, 14H17V18H21V14H23V10H12.65Z" class="i pk" transform="translate(100.51941955023234, 48) scale(0.65)"></path><text x="13" y="86" class="tf">name<tspan x="135.33" class="ty">int</tspan></text><text x="13" y="111" class="tf">description<tspan x="135.33" class="ty">int</tspan></text><text x="13" y="136" class="tf">scientific_paper<tspan x="135.33" class="ty">int</tspan></text><text x="13" y="161" class="tf">cure<tspan x="135.33" class="ty">int</tspan></text></svg><svg width="120.38" height="150" x="-27" y="222" id="h368100147" class="t"><rect height="40" width="120.38" class="th"></rect><text x="13" y="25" class="tht">people</text><rect height="110" width="120.38" class="t-bg" y="40"></rect><text x="13" y="61" class="tf pk">id<tspan x="107.38" class="ty">int</tspan></text><path d="M7,14A2,2 0 0,1 5,12A2,2 0 0,1 7,10A2,2 0 0,1 9,12A2,2 0 0,1 7,14M12.65,10C11.83,7.67 9.61,6 7, 6A6, 6 0 0, 0 1, 12A6, 6 0 0, 0 7, 18C9.61, 18 11.83, 16.33 12.65, 14H17V18H21V14H23V10H12.65Z" class="i pk" transform="translate(72.56941955023233, 48) scale(0.65)"></path><text x="13" y="86" class="tf">first_name<tspan x="107.38" class="ty">int</tspan></text><text x="13" y="111" class="tf">last_name<tspan x="107.38" class="ty">int</tspan></text><text x="13" y="136" class="tf">birthdate<tspan x="107.38" class="ty">int</tspan></text></svg><svg width="147.26" height="150" x="-56" y="53" id="h2571196243" class="t"><rect height="40" width="147.26" class="th"></rect><text x="13" y="25" class="tht">patients</text><rect height="110" width="147.26" class="t-bg" y="40"></rect><text x="13" y="61" class="tf fk">id<tspan x="134.26" class="ty">int</tspan></text><text x="13" y="86" class="tf fk">person<tspan x="134.26" class="ty">int</tspan></text><text x="13" y="111" class="tf">insurance<tspan x="134.26" class="ty">int</tspan></text><text x="13" y="136" class="tf fk">primary_doctor<tspan x="134.26" class="ty">int</tspan></text></svg><svg width="152.87" height="200" x="179" y="177" id="h2153083178" class="t"><rect height="40" width="152.87" class="th"></rect><text x="13" y="25" class="tht">doctors</text><rect height="160" width="152.87" class="t-bg" y="40"></rect><text x="13" y="61" class="tf fk">id<tspan x="139.87" class="ty">int</tspan></text><text x="13" y="86" class="tf fk">person<tspan x="139.87" class="ty">int</tspan></text><text x="13" y="111" class="tf fk">clinic<tspan x="139.87" class="ty">int</tspan></text><text x="13" y="136" class="tf">specialty<tspan x="139.87" class="ty">int</tspan></text><text x="13" y="161" class="tf">graduation_year<tspan x="139.87" class="ty">int</tspan></text><text x="13" y="186" class="tf">college<tspan x="139.87" class="ty">int</tspan></text></svg></g></g><text class="qdbd-link" x="10" y="20">www.quickdatabasediagrams.com</text></svg>