<svg class="diagram-root" style="background: #f5f6f6" xmlns="http://www.w3.org/2000/svg" xmlns:xlink="http://www.w3.org/1999/xlink"><style>.diagram-root { font-family: "Helvetica Neue", sans-serif; font-size: 12px; } .t { overflow: visible; } .t-bg { y: 40; fill: #fff;   } .th { fill: #005aa0;   } .tht { fill: #fff; font-size: 14px;  } .tf { fill: #323c46; overflow: visible; } .tf.pk { fill: #005aa0; font-weight: bold; } .tf.fk { font-weight: bold; } .ty { fill: #adb1b5; font-weight: normal; text-anchor: end; } .r { fill: transparent; stroke: #c3c3c3; stroke-width: 1; } .l { stroke: 1; } .i { fill: #c2c7ce; stroke: #c2c7ce; } .i.ix { fill: #afb3b6; stroke: #000; } .fa { fill: transparent; overflow: visible; } .fa .bg.hover { fill: #f7f7f7; } .c { cy: 12; r: 4; stroke: #d2d2dc; fill: #d2d2dc; } .hr { fill: transparent; stroke: #323c46; stroke-opacity: 0.035; stroke-width: 13; } .dc { stroke: #fa5a3c; fill: #fa5a3c; } .x { stroke: white; stroke-width: 1; } .hl .th { fill: #1b9bff; } .hl .tht {  } .fhl .bg { fill: #e7f4ff; } .fhls .bg {  } .r.hl { stroke: #1b9bff; } .dim { opacity: 0.25; }</style><g class="drawing-wrapper" transform="translate(80, 182) scale(1,1)"><g class="rs"><path d="M 180 -70 m -1, 0 a 1,1 0 1,0 2,0 a 1,1 0 1,0 -2,0 M 180 -70 m -0.5, 0 a 0.5,0.5 0 1,0 1,0 a 0.5,0.5 0 1,0 -1,0  M180 -70 L180 -70 168 -70 M 180 -64 m -1, 0 a 1,1 0 1,0 2,0 a 1,1 0 1,0 -2,0 M 180 -64 m -0.5, 0 a 0.5,0.5 0 1,0 1,0 a 0.5,0.5 0 1,0 -1,0  M180 -64 L180 -64 173 -70 180 -76 M 180 -76 m -1, 0 a 1,1 0 1,0 2,0 a 1,1 0 1,0 -2,0 M 180 -76 m -0.5, 0 a 0.5,0.5 0 1,0 1,0 a 0.5,0.5 0 1,0 -1,0  M168 -70 Q 148.45 -70, 128.91 -82.5 T 89.81 -95 M 77.81 -95 m -1, 0 a 1,1 0 1,0 2,0 a 1,1 0 1,0 -2,0 M 77.81 -95 m -0.5, 0 a 0.5,0.5 0 1,0 1,0 a 0.5,0.5 0 1,0 -1,0  M77.81 -95 L77.81 -95 89.81 -95 M83.81 -89 L83.81 -89 83.81 -101" id="h953471663" class="r"></path><path d="M 286.26 -45 m -1, 0 a 1,1 0 1,0 2,0 a 1,1 0 1,0 -2,0 M 286.26 -45 m -0.5, 0 a 0.5,0.5 0 1,0 1,0 a 0.5,0.5 0 1,0 -1,0  M286.26 -45 L286.26 -45 298.26 -45 M 286.26 -39 m -1, 0 a 1,1 0 1,0 2,0 a 1,1 0 1,0 -2,0 M 286.26 -39 m -0.5, 0 a 0.5,0.5 0 1,0 1,0 a 0.5,0.5 0 1,0 -1,0  M286.26 -39 L286.26 -39 293.26 -45 286.26 -51 M 286.26 -51 m -1, 0 a 1,1 0 1,0 2,0 a 1,1 0 1,0 -2,0 M 286.26 -51 m -0.5, 0 a 0.5,0.5 0 1,0 1,0 a 0.5,0.5 0 1,0 -1,0  M298.26 -45 Q 318.7 -45, 339.13 24.5 T 380 94 M 392 94 m -1, 0 a 1,1 0 1,0 2,0 a 1,1 0 1,0 -2,0 M 392 94 m -0.5, 0 a 0.5,0.5 0 1,0 1,0 a 0.5,0.5 0 1,0 -1,0  M392 94 L392 94 380 94 M386 100 L386 100 386 88" id="h2735327528" class="r"></path><path d="M 74.2 110 m -1, 0 a 1,1 0 1,0 2,0 a 1,1 0 1,0 -2,0 M 74.2 110 m -0.5, 0 a 0.5,0.5 0 1,0 1,0 a 0.5,0.5 0 1,0 -1,0  M74.2 110 L74.2 110 86.2 110 M 74.2 116 m -1, 0 a 1,1 0 1,0 2,0 a 1,1 0 1,0 -2,0 M 74.2 116 m -0.5, 0 a 0.5,0.5 0 1,0 1,0 a 0.5,0.5 0 1,0 -1,0  M74.2 116 L74.2 116 81.2 110 74.2 104 M 74.2 104 m -1, 0 a 1,1 0 1,0 2,0 a 1,1 0 1,0 -2,0 M 74.2 104 m -0.5, 0 a 0.5,0.5 0 1,0 1,0 a 0.5,0.5 0 1,0 -1,0  M86.2 110 C 141.976 110, 139.81 -95, 89.81 -95 M 77.81 -95 m -1, 0 a 1,1 0 1,0 2,0 a 1,1 0 1,0 -2,0 M 77.81 -95 m -0.5, 0 a 0.5,0.5 0 1,0 1,0 a 0.5,0.5 0 1,0 -1,0  M77.81 -95 L77.81 -95 89.81 -95 M83.81 -89 L83.81 -89 83.81 -101" id="h2569167868" class="r"></path><path d="M 171 349 m -1, 0 a 1,1 0 1,0 2,0 a 1,1 0 1,0 -2,0 M 171 349 m -0.5, 0 a 0.5,0.5 0 1,0 1,0 a 0.5,0.5 0 1,0 -1,0  M171 349 L171 349 159 349 M 171 355 m -1, 0 a 1,1 0 1,0 2,0 a 1,1 0 1,0 -2,0 M 171 355 m -0.5, 0 a 0.5,0.5 0 1,0 1,0 a 0.5,0.5 0 1,0 -1,0  M171 355 L171 355 164 349 171 343 M 171 343 m -1, 0 a 1,1 0 1,0 2,0 a 1,1 0 1,0 -2,0 M 171 343 m -0.5, 0 a 0.5,0.5 0 1,0 1,0 a 0.5,0.5 0 1,0 -1,0  M159 349 Q 140.8 349, 122.6 217 T 86.2 85 M 74.2 85 m -1, 0 a 1,1 0 1,0 2,0 a 1,1 0 1,0 -2,0 M 74.2 85 m -0.5, 0 a 0.5,0.5 0 1,0 1,0 a 0.5,0.5 0 1,0 -1,0  M74.2 85 L74.2 85 86.2 85 M80.2 91 L80.2 91 80.2 79" id="h2138598972" class="r"></path><path d="M 171 374 m -1, 0 a 1,1 0 1,0 2,0 a 1,1 0 1,0 -2,0 M 171 374 m -0.5, 0 a 0.5,0.5 0 1,0 1,0 a 0.5,0.5 0 1,0 -1,0  M171 374 L171 374 159 374 M 171 380 m -1, 0 a 1,1 0 1,0 2,0 a 1,1 0 1,0 -2,0 M 171 380 m -0.5, 0 a 0.5,0.5 0 1,0 1,0 a 0.5,0.5 0 1,0 -1,0  M171 380 L171 380 164 374 171 368 M 171 368 m -1, 0 a 1,1 0 1,0 2,0 a 1,1 0 1,0 -2,0 M 171 368 m -0.5, 0 a 0.5,0.5 0 1,0 1,0 a 0.5,0.5 0 1,0 -1,0  M159 374 Q 142.32 374, 125.65 363.5 T 92.29 353 M 80.29 353 m -1, 0 a 1,1 0 1,0 2,0 a 1,1 0 1,0 -2,0 M 80.29 353 m -0.5, 0 a 0.5,0.5 0 1,0 1,0 a 0.5,0.5 0 1,0 -1,0  M80.29 353 L80.29 353 92.29 353 M86.29 359 L86.29 359 86.29 347" id="h921500101" class="r"></path><path d="M 298.65 399 m -1, 0 a 1,1 0 1,0 2,0 a 1,1 0 1,0 -2,0 M 298.65 399 m -0.5, 0 a 0.5,0.5 0 1,0 1,0 a 0.5,0.5 0 1,0 -1,0  M298.65 399 L298.65 399 310.65 399 M 298.65 405 m -1, 0 a 1,1 0 1,0 2,0 a 1,1 0 1,0 -2,0 M 298.65 405 m -0.5, 0 a 0.5,0.5 0 1,0 1,0 a 0.5,0.5 0 1,0 -1,0  M298.65 405 L298.65 405 305.65 399 298.65 393 M 298.65 393 m -1, 0 a 1,1 0 1,0 2,0 a 1,1 0 1,0 -2,0 M 298.65 393 m -0.5, 0 a 0.5,0.5 0 1,0 1,0 a 0.5,0.5 0 1,0 -1,0  M310.65 399 Q 327.99 399, 345.33 246.5 T 380 94 M 392 94 m -1, 0 a 1,1 0 1,0 2,0 a 1,1 0 1,0 -2,0 M 392 94 m -0.5, 0 a 0.5,0.5 0 1,0 1,0 a 0.5,0.5 0 1,0 -1,0  M392 94 L392 94 380 94 M386 100 L386 100 386 88" id="h969798590" class="r"></path><path d="M 298.65 424 m -1, 0 a 1,1 0 1,0 2,0 a 1,1 0 1,0 -2,0 M 298.65 424 m -0.5, 0 a 0.5,0.5 0 1,0 1,0 a 0.5,0.5 0 1,0 -1,0  M298.65 424 L298.65 424 310.65 424 M 298.65 430 m -1, 0 a 1,1 0 1,0 2,0 a 1,1 0 1,0 -2,0 M 298.65 430 m -0.5, 0 a 0.5,0.5 0 1,0 1,0 a 0.5,0.5 0 1,0 -1,0  M298.65 430 L298.65 430 305.65 424 298.65 418 M 298.65 418 m -1, 0 a 1,1 0 1,0 2,0 a 1,1 0 1,0 -2,0 M 298.65 418 m -0.5, 0 a 0.5,0.5 0 1,0 1,0 a 0.5,0.5 0 1,0 -1,0  M310.65 424 Q 327.99 424, 345.33 259 T 380 94 M 392 94 m -1, 0 a 1,1 0 1,0 2,0 a 1,1 0 1,0 -2,0 M 392 94 m -0.5, 0 a 0.5,0.5 0 1,0 1,0 a 0.5,0.5 0 1,0 -1,0  M392 94 L392 94 380 94 M386 100 L386 100 386 88" id="h304833849" class="r"></path><path d="M 391 283 m -1, 0 a 1,1 0 1,0 2,0 a 1,1 0 1,0 -2,0 M 391 283 m -0.5, 0 a 0.5,0.5 0 1,0 1,0 a 0.5,0.5 0 1,0 -1,0  M391 283 L391 283 388 283 M 385 283 m -3, 0 a 3,3 0 1,0 6,0 a 3,3 0 1,0 -6,0 M382 283 L382 283 379 283 M379 283 Q 361.92 283, 344.83 266 T 310.65 249 M 298.65 249 m -1, 0 a 1,1 0 1,0 2,0 a 1,1 0 1,0 -2,0 M 298.65 249 m -0.5, 0 a 0.5,0.5 0 1,0 1,0 a 0.5,0.5 0 1,0 -1,0  M298.65 249 L298.65 249 310.65 249 M304.65 255 L304.65 255 304.65 243" id="h3282702395" class="r"></path><path d="M 391 308 m -1, 0 a 1,1 0 1,0 2,0 a 1,1 0 1,0 -2,0 M 391 308 m -0.5, 0 a 0.5,0.5 0 1,0 1,0 a 0.5,0.5 0 1,0 -1,0  M391 308 L391 308 379 308 M 391 314 m -1, 0 a 1,1 0 1,0 2,0 a 1,1 0 1,0 -2,0 M 391 314 m -0.5, 0 a 0.5,0.5 0 1,0 1,0 a 0.5,0.5 0 1,0 -1,0  M391 314 L391 314 384 308 391 302 M 391 302 m -1, 0 a 1,1 0 1,0 2,0 a 1,1 0 1,0 -2,0 M 391 302 m -0.5, 0 a 0.5,0.5 0 1,0 1,0 a 0.5,0.5 0 1,0 -1,0  M379 308 C 329 308, 328.4 94, 380 94 M 392 94 m -1, 0 a 1,1 0 1,0 2,0 a 1,1 0 1,0 -2,0 M 392 94 m -0.5, 0 a 0.5,0.5 0 1,0 1,0 a 0.5,0.5 0 1,0 -1,0  M392 94 L392 94 380 94 M386 100 L386 100 386 88" id="h2013122966" class="r"></path><path d="M 180 112 m -1, 0 a 1,1 0 1,0 2,0 a 1,1 0 1,0 -2,0 M 180 112 m -0.5, 0 a 0.5,0.5 0 1,0 1,0 a 0.5,0.5 0 1,0 -1,0  M180 112 L180 112 168 112 M 180 118 m -1, 0 a 1,1 0 1,0 2,0 a 1,1 0 1,0 -2,0 M 180 118 m -0.5, 0 a 0.5,0.5 0 1,0 1,0 a 0.5,0.5 0 1,0 -1,0  M180 118 L180 118 173 112 180 106 M 180 106 m -1, 0 a 1,1 0 1,0 2,0 a 1,1 0 1,0 -2,0 M 180 106 m -0.5, 0 a 0.5,0.5 0 1,0 1,0 a 0.5,0.5 0 1,0 -1,0  M168 112 C 107.83489927418006 112, 113.23489927418007 249, 159 249 M 171 249 m -1, 0 a 1,1 0 1,0 2,0 a 1,1 0 1,0 -2,0 M 171 249 m -0.5, 0 a 0.5,0.5 0 1,0 1,0 a 0.5,0.5 0 1,0 -1,0  M171 249 L171 249 159 249 M165 255 L165 255 165 243" id="h1852287400" class="r"></path><path d="M 180 137 m -1, 0 a 1,1 0 1,0 2,0 a 1,1 0 1,0 -2,0 M 180 137 m -0.5, 0 a 0.5,0.5 0 1,0 1,0 a 0.5,0.5 0 1,0 -1,0  M180 137 L180 137 168 137 M 180 143 m -1, 0 a 1,1 0 1,0 2,0 a 1,1 0 1,0 -2,0 M 180 143 m -0.5, 0 a 0.5,0.5 0 1,0 1,0 a 0.5,0.5 0 1,0 -1,0  M180 143 L180 143 173 137 180 131 M 180 131 m -1, 0 a 1,1 0 1,0 2,0 a 1,1 0 1,0 -2,0 M 180 131 m -0.5, 0 a 0.5,0.5 0 1,0 1,0 a 0.5,0.5 0 1,0 -1,0  M168 137 C 118 137, 118 -95, 168 -95 M 180 -95 m -1, 0 a 1,1 0 1,0 2,0 a 1,1 0 1,0 -2,0 M 180 -95 m -0.5, 0 a 0.5,0.5 0 1,0 1,0 a 0.5,0.5 0 1,0 -1,0  M180 -95 L180 -95 168 -95 M174 -89 L174 -89 174 -101" id="h455008065" class="r"></path><path d="M 286.26 162 m -1, 0 a 1,1 0 1,0 2,0 a 1,1 0 1,0 -2,0 M 286.26 162 m -0.5, 0 a 0.5,0.5 0 1,0 1,0 a 0.5,0.5 0 1,0 -1,0  M286.26 162 L286.26 162 298.26 162 M 286.26 168 m -1, 0 a 1,1 0 1,0 2,0 a 1,1 0 1,0 -2,0 M 286.26 168 m -0.5, 0 a 0.5,0.5 0 1,0 1,0 a 0.5,0.5 0 1,0 -1,0  M286.26 168 L286.26 168 293.26 162 286.26 156 M 286.26 156 m -1, 0 a 1,1 0 1,0 2,0 a 1,1 0 1,0 -2,0 M 286.26 156 m -0.5, 0 a 0.5,0.5 0 1,0 1,0 a 0.5,0.5 0 1,0 -1,0  M298.26 162 Q 318.7 162, 339.13 128 T 380 94 M 392 94 m -1, 0 a 1,1 0 1,0 2,0 a 1,1 0 1,0 -2,0 M 392 94 m -0.5, 0 a 0.5,0.5 0 1,0 1,0 a 0.5,0.5 0 1,0 -1,0  M392 94 L392 94 380 94 M386 100 L386 100 386 88" id="h1875615304" class="r"></path><path d="M 81.29 243 m -1, 0 a 1,1 0 1,0 2,0 a 1,1 0 1,0 -2,0 M 81.29 243 m -0.5, 0 a 0.5,0.5 0 1,0 1,0 a 0.5,0.5 0 1,0 -1,0  M81.29 243 L81.29 243 93.29 243 M 81.29 249 m -1, 0 a 1,1 0 1,0 2,0 a 1,1 0 1,0 -2,0 M 81.29 249 m -0.5, 0 a 0.5,0.5 0 1,0 1,0 a 0.5,0.5 0 1,0 -1,0  M81.29 249 L81.29 249 88.29 243 81.29 237 M 81.29 237 m -1, 0 a 1,1 0 1,0 2,0 a 1,1 0 1,0 -2,0 M 81.29 237 m -0.5, 0 a 0.5,0.5 0 1,0 1,0 a 0.5,0.5 0 1,0 -1,0  M93.29 243 Q 109.72 243, 126.15 246 T 159 249 M 171 249 m -1, 0 a 1,1 0 1,0 2,0 a 1,1 0 1,0 -2,0 M 171 249 m -0.5, 0 a 0.5,0.5 0 1,0 1,0 a 0.5,0.5 0 1,0 -1,0  M171 249 L171 249 159 249 M165 255 L165 255 165 243" id="h4151715867" class="r"></path><path d="M 81.29 268 m -1, 0 a 1,1 0 1,0 2,0 a 1,1 0 1,0 -2,0 M 81.29 268 m -0.5, 0 a 0.5,0.5 0 1,0 1,0 a 0.5,0.5 0 1,0 -1,0  M81.29 268 L81.29 268 93.29 268 M 81.29 274 m -1, 0 a 1,1 0 1,0 2,0 a 1,1 0 1,0 -2,0 M 81.29 274 m -0.5, 0 a 0.5,0.5 0 1,0 1,0 a 0.5,0.5 0 1,0 -1,0  M81.29 274 L81.29 274 88.29 268 81.29 262 M 81.29 262 m -1, 0 a 1,1 0 1,0 2,0 a 1,1 0 1,0 -2,0 M 81.29 262 m -0.5, 0 a 0.5,0.5 0 1,0 1,0 a 0.5,0.5 0 1,0 -1,0  M93.29 268 Q 111.97 268, 130.65 165 T 168 62 M 180 62 m -1, 0 a 1,1 0 1,0 2,0 a 1,1 0 1,0 -2,0 M 180 62 m -0.5, 0 a 0.5,0.5 0 1,0 1,0 a 0.5,0.5 0 1,0 -1,0  M180 62 L180 62 168 62 M174 68 L174 68 174 56" id="h3021373629" class="r"></path></g><g class="hrs"></g><g class="ts"><svg width="106.26" height="150" x="180" y="-152" id="h2511403611" class="t"><rect height="40" width="106.26" class="th"></rect><text x="13" y="25" class="tht">players</text><rect height="110" width="106.26" class="t-bg" y="40"></rect><text x="13" y="61" class="tf pk">id<tspan x="93.26" class="ty">int</tspan></text><path d="M7,14A2,2 0 0,1 5,12A2,2 0 0,1 7,10A2,2 0 0,1 9,12A2,2 0 0,1 7,14M12.65,10C11.83,7.67 9.61,6 7, 6A6, 6 0 0, 0 1, 12A6, 6 0 0, 0 7, 18C9.61, 18 11.83, 16.33 12.65, 14H17V18H21V14H23V10H12.65Z" class="i pk" transform="translate(58.449419550232335, 48) scale(0.65)"></path><text x="13" y="86" class="tf fk">person<tspan x="93.26" class="ty">int</tspan></text><text x="13" y="111" class="tf fk">team<tspan x="93.26" class="ty">int</tspan></text><text x="13" y="136" class="tf">position<tspan x="93.26" class="ty">int</tspan></text></svg><svg width="127.65" height="250" x="171" y="192" id="h272759971" class="t"><rect height="40" width="127.65" class="th"></rect><text x="13" y="25" class="tht">matches</text><rect height="210" width="127.65" class="t-bg" y="40"></rect><text x="13" y="61" class="tf pk">id<tspan x="114.65" class="ty">int</tspan></text><path d="M7,14A2,2 0 0,1 5,12A2,2 0 0,1 7,10A2,2 0 0,1 9,12A2,2 0 0,1 7,14M12.65,10C11.83,7.67 9.61,6 7, 6A6, 6 0 0, 0 1, 12A6, 6 0 0, 0 7, 18C9.61, 18 11.83, 16.33 12.65, 14H17V18H21V14H23V10H12.65Z" class="i pk" transform="translate(79.83941955023234, 48) scale(0.65)"></path><text x="13" y="86" class="tf">gametime<tspan x="114.65" class="ty">int</tspan></text><text x="13" y="111" class="tf">status<tspan x="114.65" class="ty">int</tspan></text><text x="13" y="136" class="tf">name<tspan x="114.65" class="ty">int</tspan></text><text x="13" y="161" class="tf fk">referee<tspan x="114.65" class="ty">int</tspan></text><text x="13" y="186" class="tf fk">season<tspan x="114.65" class="ty">int</tspan></text><text x="13" y="211" class="tf fk">away_team<tspan x="114.65" class="ty">int</tspan></text><text x="13" y="236" class="tf fk">home_team<tspan x="114.65" class="ty">int</tspan></text></svg><svg width="106.26" height="175" x="180" y="5" id="h2360943443" class="t"><rect height="40" width="106.26" class="th"></rect><text x="13" y="25" class="tht">lineups</text><rect height="135" width="106.26" class="t-bg" y="40"></rect><text x="13" y="61" class="tf pk">id<tspan x="93.26" class="ty">int</tspan></text><path d="M7,14A2,2 0 0,1 5,12A2,2 0 0,1 7,10A2,2 0 0,1 9,12A2,2 0 0,1 7,14M12.65,10C11.83,7.67 9.61,6 7, 6A6, 6 0 0, 0 1, 12A6, 6 0 0, 0 7, 18C9.61, 18 11.83, 16.33 12.65, 14H17V18H21V14H23V10H12.65Z" class="i pk" transform="translate(58.449419550232335, 48) scale(0.65)"></path><text x="13" y="86" class="tf">position<tspan x="93.26" class="ty">int</tspan></text><text x="13" y="111" class="tf fk">match<tspan x="93.26" class="ty">int</tspan></text><text x="13" y="136" class="tf fk">player<tspan x="93.26" class="ty">int</tspan></text><text x="13" y="161" class="tf fk">team<tspan x="93.26" class="ty">int</tspan></text></svg><svg width="126.81" height="175" x="-49" y="-152" id="h368100147" class="t"><rect height="40" width="126.81" class="th"></rect><text x="13" y="25" class="tht">people</text><rect height="135" width="126.81" class="t-bg" y="40"></rect><text x="13" y="61" class="tf pk">id<tspan x="113.81" class="ty">int</tspan></text><path d="M7,14A2,2 0 0,1 5,12A2,2 0 0,1 7,10A2,2 0 0,1 9,12A2,2 0 0,1 7,14M12.65,10C11.83,7.67 9.61,6 7, 6A6, 6 0 0, 0 1, 12A6, 6 0 0, 0 7, 18C9.61, 18 11.83, 16.33 12.65, 14H17V18H21V14H23V10H12.65Z" class="i pk" transform="translate(78.99941955023233, 48) scale(0.65)"></path><text x="13" y="86" class="tf">first_name<tspan x="113.81" class="ty">int</tspan></text><text x="13" y="111" class="tf">last_name<tspan x="113.81" class="ty">int</tspan></text><text x="13" y="136" class="tf">home_town<tspan x="113.81" class="ty">int</tspan></text><text x="13" y="161" class="tf">birthday<tspan x="113.81" class="ty">int</tspan></text></svg><svg width="100.2" height="100" x="-26" y="28" id="h441037955" class="t"><rect height="40" width="100.2" class="th"></rect><text x="13" y="25" class="tht">referees</text><rect height="60" width="100.2" class="t-bg" y="40"></rect><text x="13" y="61" class="tf pk">id<tspan x="87.2" class="ty">int</tspan></text><path d="M7,14A2,2 0 0,1 5,12A2,2 0 0,1 7,10A2,2 0 0,1 9,12A2,2 0 0,1 7,14M12.65,10C11.83,7.67 9.61,6 7, 6A6, 6 0 0, 0 1, 12A6, 6 0 0, 0 7, 18C9.61, 18 11.83, 16.33 12.65, 14H17V18H21V14H23V10H12.65Z" class="i pk" transform="translate(52.38941955023233, 48) scale(0.65)"></path><text x="13" y="86" class="tf fk">person<tspan x="87.2" class="ty">int</tspan></text></svg><svg width="139.29" height="150" x="-58" y="136" id="h3636817144" class="t"><rect height="40" width="139.29" class="th"></rect><text x="13" y="25" class="tht">goals</text><rect height="110" width="139.29" class="t-bg" y="40"></rect><text x="13" y="61" class="tf pk">id<tspan x="126.28999999999999" class="ty">int</tspan></text><path d="M7,14A2,2 0 0,1 5,12A2,2 0 0,1 7,10A2,2 0 0,1 9,12A2,2 0 0,1 7,14M12.65,10C11.83,7.67 9.61,6 7, 6A6, 6 0 0, 0 1, 12A6, 6 0 0, 0 7, 18C9.61, 18 11.83, 16.33 12.65, 14H17V18H21V14H23V10H12.65Z" class="i pk" transform="translate(91.47941955023232, 48) scale(0.65)"></path><text x="13" y="86" class="tf">game_minutes<tspan x="126.28999999999999" class="ty">int</tspan></text><text x="13" y="111" class="tf fk">match<tspan x="126.28999999999999" class="ty">int</tspan></text><text x="13" y="136" class="tf fk">position<tspan x="126.28999999999999" class="ty">int</tspan></text></svg><svg width="117.29" height="150" x="-37" y="296" id="h2259709164" class="t"><rect height="40" width="117.29" class="th"></rect><text x="13" y="25" class="tht">seasons</text><rect height="110" width="117.29" class="t-bg" y="40"></rect><text x="13" y="61" class="tf pk">id<tspan x="104.29" class="ty">int</tspan></text><path d="M7,14A2,2 0 0,1 5,12A2,2 0 0,1 7,10A2,2 0 0,1 9,12A2,2 0 0,1 7,14M12.65,10C11.83,7.67 9.61,6 7, 6A6, 6 0 0, 0 1, 12A6, 6 0 0, 0 7, 18C9.61, 18 11.83, 16.33 12.65, 14H17V18H21V14H23V10H12.65Z" class="i pk" transform="translate(69.47941955023234, 48) scale(0.65)"></path><text x="13" y="86" class="tf">name<tspan x="104.29" class="ty">int</tspan></text><text x="13" y="111" class="tf">start_date<tspan x="104.29" class="ty">int</tspan></text><text x="13" y="136" class="tf">end_date<tspan x="104.29" class="ty">int</tspan></text></svg><svg width="106.61" height="150" x="392" y="37" id="h2129428134" class="t"><rect height="40" width="106.61" class="th"></rect><text x="13" y="25" class="tht">teams</text><rect height="110" width="106.61" class="t-bg" y="40"></rect><text x="13" y="61" class="tf pk">id<tspan x="93.61" class="ty">int</tspan></text><path d="M7,14A2,2 0 0,1 5,12A2,2 0 0,1 7,10A2,2 0 0,1 9,12A2,2 0 0,1 7,14M12.65,10C11.83,7.67 9.61,6 7, 6A6, 6 0 0, 0 1, 12A6, 6 0 0, 0 7, 18C9.61, 18 11.83, 16.33 12.65, 14H17V18H21V14H23V10H12.65Z" class="i pk" transform="translate(58.79941955023233, 48) scale(0.65)"></path><text x="13" y="86" class="tf">name<tspan x="93.61" class="ty">int</tspan></text><text x="13" y="111" class="tf">location<tspan x="93.61" class="ty">int</tspan></text><text x="13" y="136" class="tf">stadium<tspan x="93.61" class="ty">int</tspan></text></svg><svg width="140.23" height="175" x="391" y="201" id="h3479580529" class="t"><rect height="40" width="140.23" class="th"></rect><text x="13" y="25" class="tht">results</text><rect height="135" width="140.23" class="t-bg" y="40"></rect><text x="13" y="61" class="tf pk">id<tspan x="127.22999999999999" class="ty">int</tspan></text><path d="M7,14A2,2 0 0,1 5,12A2,2 0 0,1 7,10A2,2 0 0,1 9,12A2,2 0 0,1 7,14M12.65,10C11.83,7.67 9.61,6 7, 6A6, 6 0 0, 0 1, 12A6, 6 0 0, 0 7, 18C9.61, 18 11.83, 16.33 12.65, 14H17V18H21V14H23V10H12.65Z" class="i pk" transform="translate(92.41941955023232, 48) scale(0.65)"></path><text x="13" y="86" class="tf fk">match<tspan x="127.22999999999999" class="ty">int</tspan></text><text x="13" y="111" class="tf fk">winning_team<tspan x="127.22999999999999" class="ty">int</tspan></text><text x="13" y="136" class="tf">away_score<tspan x="127.22999999999999" class="ty">int</tspan></text><text x="13" y="161" class="tf">home_score<tspan x="127.22999999999999" class="ty">int</tspan></text></svg></g></g><text class="qdbd-link" x="10" y="20">www.quickdatabasediagrams.com</text></svg>